<svg xmlns="http://www.w3.org/2000/svg" width="48" height="48"><path d="M 22.95 26.65 C 23.117 27.117 23.467 27.35 24 27.35 C 24.533 27.35 24.9 27.117 25.1 26.65 L 26.75 22.85 L 30.6 21.15 C 31 20.983 31.2 20.633 31.2 20.1 C 31.2 19.567 31 19.2 30.6 19 L 26.75 17.35 L 25.1 13.5 C 24.9 13.067 24.533 12.85 24 12.85 C 23.467 12.85 23.117 13.067 22.95 13.5 L 21.25 17.35 L 17.45 19 C 17.017 19.2 16.8 19.567 16.8 20.1 C 16.8 20.633 17.017 20.983 17.45 21.15 L 21.25 22.85 Z M 2.95 39.5 L 2.95 7.55 C 2.95 6.317 3.4 5.242 4.3 4.325 C 5.2 3.408 6.267 2.95 7.5 2.95 L 40.5 2.95 C 41.733 2.95 42.808 3.408 43.725 4.325 C 44.642 5.242 45.1 6.317 45.1 7.55 L 45.1 32.6 C 45.1 33.833 44.642 34.9 43.725 35.8 C 42.808 36.7 41.733 37.15 40.5 37.15 L 10.8 37.15 L 6.85 41.1 C 6.05 41.9 5.2 42.1 4.3 41.7 C 3.4 41.3 2.95 40.567 2.95 39.5 Z" fill="rgb(0, 113, 222)"></path></svg>