<svg xmlns="http://www.w3.org/2000/svg" width="48" height="48"><path d="M 45.1 39.5 L 45.1 7.55 C 45.1 6.317 44.65 5.242 43.75 4.325 C 42.85 3.408 41.783 2.95 40.55 2.95 L 7.55 2.95 C 6.317 2.95 5.242 3.408 4.325 4.325 C 3.408 5.242 2.95 6.317 2.95 7.55 L 2.95 32.6 C 2.95 33.833 3.408 34.9 4.325 35.8 C 5.242 36.7 6.317 37.15 7.55 37.15 L 37.25 37.15 L 41.2 41.1 C 42 41.9 42.85 42.1 43.75 41.7 C 44.65 41.3 45.1 40.567 45.1 39.5 Z" fill="rgb(0, 194, 74)"></path><g transform="translate(17 15)"><path d="M 0 5 L 5 10" fill="transparent" stroke-width="5" stroke="hsl(0, 0%, 100%)" stroke-linecap="round"></path><path d="M 15 0 L 5 10" fill="transparent" stroke-width="5" stroke="hsl(0, 0%, 100%)" stroke-linecap="round"></path></g></svg>