<svg xmlns="http://www.w3.org/2000/svg" width="480" height="271" viewBox="0 0 480 271"><g fill="none" fill-rule="evenodd"><rect width="480" height="271" fill="#0071DE"/><path fill="#00C24A" d="M36.4547953,57.7583906 L57.4714153,63.2142667 C58.2268775,63.4103833 59.0244391,63.3687627 59.7553848,63.0950781 L65.6052838,60.9047276 C66.0307941,60.7454058 66.48146,60.6638017 66.9358194,60.6638017 L74.9165227,60.6638017 C75.7771623,60.6638017 76.6122359,60.9563783 77.2846854,61.4935117 L82.3481971,65.5381 C83.0206465,66.0752333 83.8557202,66.3678099 84.7163598,66.3678099 L92.1622873,66.3678099 C92.3415712,66.3678099 92.5206297,66.3551035 92.6981171,66.3297862 L114.938192,63.1573976 C115.478455,63.0803329 116.028985,63.120713 116.552221,63.2757829 L123.096217,65.2152056 C124.591169,65.6582595 125.662913,66.9707404 125.798179,68.5240853 L125.921521,69.9405038 C126.078332,71.7412644 124.745648,73.3281896 122.944887,73.4850005 C122.850467,73.4932226 122.755734,73.4973395 122.660956,73.4973395 L120.545041,73.4973395 C119.608667,73.4973395 118.705359,73.8435682 118.008871,74.4694284 L113.637877,78.3971751 C112.079121,79.7978633 111.950982,82.1969669 113.35167,83.755723 C113.654894,84.0931654 114.016173,84.3734968 114.418354,84.5834069 L125.307751,90.2669002 C127.165556,91.236543 129.457656,90.5165449 130.427299,88.6587395 C130.676288,88.1816831 130.82096,87.6571225 130.85171,87.1198768 L131.114753,82.5242418 C131.234505,80.4320403 133.027648,78.8330542 135.11985,78.9528066 C135.716422,78.9869529 136.296496,79.1615111 136.812839,79.4622677 L140.897637,81.841558 C142.123393,82.55553 143.645032,82.5261707 144.842335,81.7654469 L145.51162,81.3402066 C147.025304,80.3784657 149.011308,80.644379 150.218669,81.9704504 L158.351365,90.9027765 C159.762213,92.452343 159.64976,94.852233 158.100193,96.2630809 C157.679874,96.645773 157.178944,96.9291398 156.634409,97.092247 L151.731481,98.5608467 C150.287943,98.9932373 149.468246,100.513978 149.900636,101.957516 C149.983059,102.232686 150.108417,102.493115 150.272079,102.72918 C151.183453,104.043741 150.856604,105.848218 149.542043,106.759591 C149.337111,106.901669 149.114688,107.016686 148.880293,107.101788 L139.041464,110.674001 C137.622379,111.189233 136.643742,112.496712 136.549375,114.003483 L136.328794,117.525529 C136.264659,118.549573 135.788545,119.503992 135.009014,120.171158 L130.720429,123.84157 C129.978094,124.476902 129.509454,125.374108 129.412108,126.346338 L129.086007,129.603218 C128.938212,131.079296 127.621803,132.156082 126.145726,132.008287 C125.659019,131.959554 125.194859,131.778844 124.803326,131.485654 L122.211329,129.544701 C121.430397,128.959919 120.454227,128.698404 119.48554,128.814464 L112.43652,129.659017 C110.529129,129.887545 109.093446,131.505507 109.093446,133.426539 L109.093446,136.819575 C109.093446,138.915201 110.792287,140.614042 112.887912,140.614042 C113.007858,140.614042 113.127737,140.608354 113.247144,140.596999 L116.724697,140.266285 C117.913012,140.153276 118.967944,141.024985 119.080952,142.2133 C119.08742,142.281315 119.09066,142.349598 119.09066,142.41792 C119.09066,143.828431 120.016144,145.071833 121.367317,145.476644 L121.503555,145.517461 C122.932636,145.945614 123.978225,147.171434 124.175651,148.650152 L124.455295,150.744685 C124.664538,152.311917 125.823684,153.585131 127.364455,153.940128 L129.977163,154.542101 C130.641377,154.695138 131.334551,154.666432 131.983838,154.459 L141.660132,151.367658 C142.459525,151.112272 143.321029,151.129094 144.109843,151.415494 L162.532007,158.104146 C163.376138,158.41063 164.084206,159.006575 164.530288,159.785998 L166.830043,163.804276 C167.351746,164.715828 168.227935,165.37037 169.250028,165.612085 L183.593891,169.004261 C184.919575,169.317772 185.975471,170.317863 186.360431,171.624589 L187.364555,175.033029 C187.816719,176.567873 187.257493,178.221418 185.96654,179.166742 L182.121038,181.982684 C181.383617,182.522675 180.865885,183.310694 180.663014,184.201887 L179.004856,191.485994 C178.747408,192.616936 177.986842,193.568016 176.940188,194.067839 L169.807161,197.474176 C168.487832,198.104214 167.647841,199.436203 167.647841,200.898249 L167.647841,202.506722 C167.647841,203.589346 167.185394,204.620415 166.376894,205.340416 L150.614875,219.377138 C150.23169,219.71838 149.921695,220.133793 149.703635,220.598257 L143.594045,233.611594 C143.146981,234.563833 143.115292,235.658933 143.506545,236.63543 L144.797561,239.85758 C145.285318,241.074937 144.693862,242.457204 143.476505,242.944962 C142.955095,243.153875 142.376507,243.171186 141.843539,242.993819 L139.250635,242.130923 C137.724849,241.623155 136.684816,240.208772 136.654981,238.600991 L136.235371,215.988322 C136.230778,215.740847 136.250412,215.493516 136.29399,215.249865 L140.511494,191.669247 C140.79716,190.072053 140.035669,188.46996 138.616772,187.682962 L133.554632,184.875221 C132.819129,184.467271 132.240009,183.826516 131.908269,183.053641 L127.402748,172.556844 C126.961901,171.529774 126.99629,170.360584 127.49674,169.3612 L130.437571,163.488452 C131.375901,161.614636 130.61754,159.334942 128.743725,158.396612 C128.569827,158.309531 128.389492,158.235948 128.204313,158.176515 L121.127196,155.905091 C119.913718,155.515621 119.09066,154.387047 119.09066,153.112599 C119.09066,151.827834 118.288802,150.679631 117.082612,150.23722 L96.7288504,142.771781 C96.0970525,142.540048 95.5382493,142.144458 95.1097338,141.625571 L74.3926866,116.53943 C73.7506005,115.761931 73.4443902,114.760837 73.5416667,113.757186 L74.6676474,102.139875 C74.7638796,101.146999 74.4652627,100.156162 73.8364244,99.3818056 L61.4218187,84.0943687 C60.8504005,83.3907201 60.0459662,82.9148747 59.1541025,82.752951 L45.9930405,80.3634743 C45.2335031,80.2255753 44.4499726,80.3226193 43.7470286,80.6416537 L35.8140313,84.2420811 C34.8803096,84.665855 33.8148275,84.6936953 32.8602492,84.3192614 L25.4185927,81.4002674 C23.7045732,80.7279422 22.860113,78.7934276 23.5324382,77.0794081 C23.6711521,76.725772 23.8692863,76.3984451 24.1182834,76.1115645 L24.8930923,75.2188725 C26.1994184,73.7137959 26.1187853,71.4546114 24.7084837,70.0464946 L24.1182834,69.4572087 C22.7308002,68.071875 22.7290577,65.8240629 24.1143913,64.4365797 C24.2875,64.2632024 24.4780915,64.1082106 24.6831183,63.9740825 L33.4240602,58.2557781 C34.3190626,57.6702695 35.4195991,57.4896556 36.4547953,57.7583906 Z M443.529975,221.243146 C444.224579,221.546673 444.54161,222.355818 444.238083,223.050423 C444.184399,223.173276 444.113004,223.2876 444.026174,223.389753 L440.821605,227.15984 C439.887471,228.258823 438.411033,228.733167 437.011611,228.383899 L436.333552,228.214668 C435.509105,228.008903 435.007565,227.173751 435.213331,226.349304 C435.293164,226.029431 435.473634,225.743662 435.728147,225.534103 L440.412028,221.677536 C441.286708,220.957351 442.491753,220.789465 443.529975,221.243146 Z M443.982105,211.744497 L448.100067,214.255468 C449.32689,215.003536 449.714997,216.604502 448.966928,217.831325 C448.891951,217.954287 448.806893,218.070811 448.712632,218.179697 L447.602196,219.462412 C447.231475,219.890648 446.583793,219.937273 446.155556,219.566553 C446.080306,219.501409 446.014938,219.425657 445.961511,219.341681 L445.815247,219.111786 C445.427944,218.503031 445.222232,217.79647 445.222232,217.074954 L445.222232,216.579141 C445.222232,215.7017 444.918138,214.851376 444.361718,214.172921 L443.810808,213.501185 C443.491037,213.111282 443.316277,212.622607 443.316277,212.118347 C443.316277,211.876519 443.512318,211.680478 443.754146,211.680478 C443.83457,211.680478 443.91344,211.702627 443.982105,211.744497 Z M405.305668,181.139906 L405.75973,182.793099 C405.957566,183.513401 406.52104,184.075706 407.241752,184.272046 C407.964247,184.468872 408.532634,185.026871 408.742752,185.745613 L409.55171,188.512789 C409.769945,189.259298 410.212306,189.920715 410.818899,190.407488 L418.055672,196.214778 C419.360064,197.261513 419.825318,199.038832 419.201098,200.590425 L414.016511,213.477496 C413.438434,214.914394 412.045071,215.855728 410.496248,215.855728 L403.378682,215.855728 C402.27218,215.855728 401.2208,215.372737 400.49994,214.533268 L396.005431,209.29925 C395.535694,208.752225 394.919821,208.35036 394.229937,208.140718 L391.431698,207.29039 C390.769397,207.08913 390.064659,207.072873 389.393783,207.24338 L376.719252,210.464678 C374.784139,210.956497 372.798941,209.86454 372.178171,207.966859 L368.938419,198.063008 C368.294804,196.09549 369.34695,193.975202 371.303074,193.297748 L376.604029,191.461896 C377.589613,191.120563 378.391236,190.388583 378.820493,189.437993 L379.283767,188.412073 C379.65888,187.581384 380.32047,186.913474 381.147555,186.53048 L384.582072,184.940076 C385.081766,184.708685 385.625837,184.588829 386.176506,184.588829 L387.325488,184.588829 C388.512545,184.588829 389.568146,183.833787 389.951672,182.710393 L390.076608,182.34444 C390.513781,181.063907 391.838996,180.312124 393.162438,180.593875 L396.251906,181.251599 C397.247052,181.463458 397.89585,182.425148 397.719679,183.427228 C397.525655,184.53086 397.961843,185.650767 398.851214,186.332433 L400.022226,187.229965 C400.87504,187.88361 402.096266,187.722152 402.749911,186.869339 C402.950238,186.607972 403.080944,186.300032 403.129786,185.974366 L403.611365,182.763307 C403.702061,182.158561 403.937574,181.584693 404.297845,181.090579 L404.384745,180.971395 C404.553817,180.739511 404.878855,180.688592 405.110739,180.857664 C405.20579,180.926968 405.274512,181.026473 405.305668,181.139906 Z M360.631712,43.8256246 L370.479327,49.6748106 C371.06569,50.0230923 371.735082,50.206902 372.417079,50.206902 L380.57266,50.206902 C381.592881,50.206902 382.570121,50.6177352 383.283883,51.346704 L387.568557,55.7226649 C388.542244,56.7170968 389.982198,57.0986806 391.320568,56.7169369 L401.6576,53.7685005 C402.198299,53.6142768 402.766514,53.5821436 403.321152,53.6744246 L423.820282,57.0850785 C424.789443,57.246328 425.65828,57.7772054 426.243989,58.5660145 L426.919291,59.4754827 C427.869009,60.7545241 429.527514,61.2872036 431.044392,60.8003847 L440.413184,57.7936139 C441.328581,57.4998313 442.321368,57.5644722 443.190941,57.9744753 L452.891663,62.5483598 C454.725465,63.4129964 455.511129,65.6005131 454.646493,67.4343153 C454.346117,68.0713803 453.868812,68.6085856 453.271521,68.9818426 L449.687705,71.2214275 C448.915935,71.7037191 448.681267,72.720337 449.163559,73.492107 C449.281993,73.6816277 449.437741,73.8450767 449.621329,73.9725134 C450.364691,74.4885129 450.549005,75.5094271 450.033005,76.2527889 C449.904646,76.4377063 449.73956,76.5941911 449.548046,76.7124822 L442.411038,81.1207411 C441.454714,81.7114263 440.285718,81.8477127 439.21916,81.4928635 L436.504814,80.5897879 C435.654515,80.3068891 434.73153,80.334059 433.899343,80.6664851 L432.808498,81.1022352 C431.371452,81.6762792 430.428943,83.0677006 430.428943,84.6151589 L430.428943,87.6094539 C430.428943,88.6167056 430.028459,89.5826271 429.315739,90.2943757 L426.900628,92.7061954 C425.991861,93.6137238 424.519463,93.6127198 423.611934,92.7039529 C423.357415,92.4490859 423.165578,92.1385793 423.05155,91.7969141 L422.524664,90.2181941 C422.112064,88.9819103 422.362825,87.6203836 423.1888,86.6122162 L428.316955,80.3529025 C428.869226,79.6788137 428.770472,78.6846534 428.096383,78.1323832 C427.814353,77.9013205 427.461007,77.7750573 427.09641,77.7750573 L425.116712,77.7750573 C424.241793,77.7750573 423.393756,78.0774067 422.716179,78.6309153 L419.575012,81.1969172 C418.897435,81.7504257 418.049397,82.0527751 417.174479,82.0527751 L406.960899,82.0527751 C405.842542,82.0527751 404.78114,82.5461285 404.060171,83.4010711 L399.246545,89.1091857 C398.582494,89.8966338 398.682527,91.0733066 399.469975,91.7373578 C399.622482,91.8659665 399.794636,91.9692745 399.979872,92.0433433 C401.244107,92.5488619 401.859169,93.983531 401.35365,95.2477664 C401.339372,95.2834747 401.32426,95.318844 401.308327,95.3538453 L396.15316,106.678529 C395.843908,107.357883 395.341156,107.930937 394.707826,108.325972 L389.845309,111.358926 C388.734213,112.051963 388.058991,113.268931 388.058991,114.578447 L388.058991,117.910297 C388.058991,118.701889 387.811423,119.473661 387.350953,120.117544 L386.869214,120.791168 C386.551966,121.23478 385.935168,121.337218 385.491556,121.019971 C385.310139,120.890231 385.177985,120.702898 385.116611,120.488473 L383.660564,115.401377 C383.352162,114.323892 382.228678,113.700427 381.151193,114.008828 C380.893241,114.082661 380.652491,114.206914 380.442873,114.374399 L379.834145,114.860775 C378.743483,115.732217 378.21943,117.132173 378.469761,118.505595 L379.728002,125.408853 C379.884087,126.265208 379.740995,127.149192 379.322719,127.912574 L375.335299,135.189877 C374.669308,136.405354 373.393592,137.161021 372.007616,137.161021 L365.687346,137.161021 C364.764681,137.161021 363.873627,137.497207 363.180907,138.106674 L361.583654,139.511968 C360.195691,140.733123 359.889788,142.776811 360.859362,144.350846 L362.705904,147.348576 C363.617242,148.828069 363.407153,150.737551 362.195949,151.983514 L361.637453,152.558037 C360.262622,153.972324 358.001595,154.004308 356.587309,152.629477 C356.544222,152.587592 356.5022,152.544626 356.461281,152.500621 L354.465102,150.353868 C354.048226,149.905546 353.346844,149.880054 352.898521,150.296931 C352.705731,150.476198 352.583037,150.718229 352.552402,150.979699 L352.463326,151.739965 C352.34199,152.77558 352.652162,153.81549 353.320986,154.615425 L357.996203,160.207136 C358.442833,160.741319 358.371856,161.536426 357.837673,161.983055 C357.762496,162.04591 357.680248,162.099786 357.592594,162.143593 C356.777785,162.550805 355.787251,162.287093 355.282779,161.528645 L350.846343,154.858694 C350.533492,154.388341 350.329609,153.854069 350.249571,153.294871 L349.46221,147.793853 C349.352084,147.024436 349.008328,146.307398 348.477429,145.739703 L342.830396,139.70128 C341.486263,138.263987 339.266389,138.092783 337.717765,139.306979 L330.384421,145.056674 C329.811042,145.50623 329.379217,146.111361 329.140543,146.799765 L327.363767,151.924472 C326.857394,153.384989 325.262916,154.158476 323.802399,153.652103 C323.122423,153.41635 322.559388,152.927732 322.230231,152.28773 L316.4793,141.105808 C316.278875,140.716109 316.01246,140.364073 315.691869,140.065313 L309.798723,134.573458 C309.299364,134.108103 308.683725,133.786065 308.016678,133.641278 L298.820889,131.645277 C298.335926,131.540013 297.87632,131.340641 297.468104,131.058454 L293.088658,128.03108 C292.321598,127.500836 291.386146,127.27161 290.460841,127.387153 L289.993385,127.445523 C289.145624,127.551383 288.544194,128.324445 288.650053,129.172206 C288.663732,129.281751 288.689098,129.389517 288.725717,129.493662 L290.397332,134.24773 C290.934451,135.775298 292.60821,136.578214 294.135778,136.041095 C294.183623,136.024271 294.231024,136.006209 294.277933,135.986927 C295.751936,135.381018 297.438037,136.084747 298.043946,137.55875 C298.068735,137.619056 298.091473,137.680184 298.112121,137.74203 L299.125581,140.77758 C299.789224,142.765349 298.715808,144.914744 296.728039,145.578387 C296.59651,145.6223 296.462673,145.65897 296.327129,145.688232 L285.756921,147.970185 C284.05126,148.338412 282.314349,147.495897 281.547638,145.928407 L273.754567,129.996003 C273.458401,129.390511 272.727463,129.139753 272.121972,129.435919 C271.940181,129.524839 271.783355,129.657569 271.665609,129.822162 C270.934576,130.844046 270.834764,132.188412 271.406875,133.307049 L280.498008,151.082745 C281.315441,152.681055 283.141107,153.4878 284.873249,153.016124 L287.137148,152.399646 C288.494644,152.029989 289.894777,152.83079 290.264434,154.188286 C290.420626,154.761871 290.371301,155.37202 290.125002,155.913067 L287.863349,160.881251 C287.697659,161.245222 287.475474,161.580712 287.205019,161.8753 L278.432321,171.430777 C277.619477,172.31615 277.274166,173.534276 277.501458,174.714504 L279.099858,183.014287 C279.359385,184.361896 278.871021,185.744619 277.822714,186.630314 L274.163729,189.721721 C273.620011,190.181098 273.216469,190.784147 272.999202,191.461976 L269.787286,201.482529 C269.613237,202.025528 269.319047,202.522319 268.926582,202.935976 L262.076743,210.155689 C261.360272,210.910848 260.365025,211.338501 259.324065,211.338501 L254.653892,211.338501 C253.256892,211.338501 251.972884,210.570878 251.311545,209.340334 L242.687736,193.294151 C242.192629,192.372913 242.099712,191.288171 242.430931,190.296151 L245.336313,181.594388 C245.586364,180.845475 245.596567,180.037212 245.365501,179.282225 L240.760958,164.237293 C240.57898,163.642697 240.253664,163.101936 239.81363,162.662584 L237.362819,160.215569 C236.356333,159.210643 234.872379,158.852958 233.518576,159.288973 L223.038095,162.664386 C221.754827,163.077684 220.348624,162.77903 219.344104,161.879846 L208.424105,152.104931 C207.619971,151.38512 207.1604,150.356943 207.1604,149.277703 L207.1604,138.406772 C207.1604,137.59752 207.419124,136.809464 207.89879,136.15769 L216.746548,124.13526 C217.316505,123.360796 218.159242,122.831609 219.104407,122.654668 L238.086587,119.101083 C239.473106,118.841518 240.8459,119.6147 241.342639,120.93495 L241.65477,121.764543 C242.005143,122.695777 242.707266,123.452135 243.609905,123.870703 L248.710085,126.235735 C249.978786,126.824051 251.468248,126.666833 252.586161,125.826603 L253.679716,125.004679 C254.644348,124.279655 255.896325,124.056686 257.051953,124.404105 L264.978076,126.786953 C265.845789,127.047816 266.778206,126.989567 267.606707,126.622741 L269.57078,125.753132 C270.88666,125.170515 271.759709,123.893639 271.825131,122.456035 L271.876997,121.316319 C271.957773,119.541302 270.58432,118.036884 268.809303,117.956108 C268.722352,117.952151 268.635277,117.951724 268.548293,117.954828 L265.786104,118.05341 C264.200799,118.10999 262.747602,117.174434 262.142854,115.707916 L261.475041,114.088463 C261.1372,113.269197 260.379671,112.699206 259.498879,112.601531 C258.792687,112.523219 258.156719,113.032216 258.078407,113.738409 C258.073185,113.785494 258.070569,113.832832 258.070569,113.880206 L258.070569,114.344604 C258.070569,115.5362 257.488722,116.652723 256.512026,117.335339 L256.483621,117.355192 C255.821138,117.818203 254.908745,117.6565 254.445733,116.994017 C254.368398,116.883365 254.306745,116.762545 254.262529,116.634993 L252.294009,110.956379 C252.126684,110.473694 251.863613,110.029767 251.520568,109.651214 L247.096474,104.769179 C246.422516,104.02546 245.407379,103.690518 244.423163,103.887128 C243.893195,103.992996 243.549394,104.508442 243.655262,105.03841 C243.686274,105.193655 243.754489,105.339057 243.854054,105.462141 L248.609619,111.341084 C249.152511,112.012221 249.252971,112.938755 248.86654,113.710655 C248.573686,114.295633 247.862062,114.532447 247.277083,114.239593 C247.213987,114.208005 247.15384,114.170843 247.097359,114.12855 L240.450457,109.151312 C239.736308,108.616553 238.856565,108.350538 237.965762,108.399994 L234.991807,108.565102 C234.112719,108.613907 233.277962,108.966895 232.630556,109.563589 L230.061892,111.931046 C229.695082,112.269123 229.398534,112.67621 229.189217,113.129015 L228.197117,115.275167 C227.813254,116.105555 227.142314,116.769307 226.30784,117.144203 L224.427965,117.988757 C222.643247,118.79056 220.54264,118.068116 219.628646,116.338168 L218.132683,113.506705 C217.304565,111.939297 217.903878,109.99734 219.471286,109.169222 C219.903847,108.940684 220.382925,108.814048 220.871915,108.798987 L224.308559,108.693144 C225.344917,108.661225 226.263982,108.018559 226.649653,107.056107 C227.037456,106.088336 226.833559,104.983776 226.125794,104.218243 L225.380172,103.411762 C224.478678,102.436687 224.538328,100.915427 225.513403,100.013933 C225.603829,99.9303307 225.700545,99.8537986 225.802696,99.7850128 L236.281366,92.7289789 C236.832872,92.3576107 237.472278,92.1376763 238.135538,92.0912056 L252.908574,91.0561459 C254.324516,90.9569392 255.566692,90.0757566 256.12825,88.7721516 L257.907974,84.6406847 C258.569898,83.1040904 258.14728,81.3153004 256.867661,80.237413 L256.483621,79.9139162 C255.144056,78.7855329 254.972859,76.7848655 256.101242,75.4453005 C256.132421,75.4082866 256.164443,75.3719912 256.197283,75.3364429 L258.661189,72.6693311 C259.294358,71.9839422 259.252026,70.9150397 258.566637,70.2818703 C258.510429,70.2299444 258.450757,70.1818971 258.388035,70.1380605 C257.474757,69.4997669 256.232526,69.6224435 255.461741,70.4270468 L250.824199,75.2680612 C250.176831,75.9438319 249.802018,76.8349924 249.771773,77.7703191 L249.587046,83.4830679 C249.535581,85.0746451 248.482265,86.4592156 246.962125,86.9334946 C245.670762,87.3363961 244.297288,86.6161553 243.894387,85.3247917 C243.874378,85.2606589 243.857016,85.1957301 243.842344,85.13017 L243.788422,84.8892092 C243.470585,83.4689064 242.061544,82.5751813 240.641241,82.8930184 C240.557362,82.911789 240.474452,82.9346521 240.392807,82.9615257 L238.074688,83.724542 C236.251744,84.3245698 234.287537,83.3332004 233.68751,81.5102566 C233.667276,81.4487842 233.648763,81.3867585 233.631993,81.3242521 L233.364848,80.3285134 C232.953175,78.7940691 233.541008,77.1656124 234.83785,76.2479004 L259.769346,58.6050934 C260.878346,57.8203081 262.322296,57.6883221 263.555198,58.2590432 L277.039612,64.5010986 C277.861874,64.8817308 278.219885,65.856869 277.839253,66.6791306 C277.77466,66.8186691 277.69077,66.948434 277.590048,67.0646162 L277.488645,67.1815833 C276.659421,68.1380817 275.407816,68.6180605 274.151663,68.4612846 L272.352908,68.2367885 C271.56599,68.1385762 270.848451,68.6968821 270.750238,69.4837998 C270.69878,69.8961059 270.828446,70.3104876 271.105747,70.6199202 L271.922993,71.5318643 C273.103185,72.8488087 275.036626,73.175903 276.584337,72.3204574 L291.03649,64.3325079 C291.483024,64.085701 291.974745,63.9314809 292.482248,63.8790699 L308.226669,62.2531094 C309.419047,62.1299699 310.483121,61.4506371 311.096659,60.4208316 L313.862484,55.77848 C314.667671,54.426998 316.223294,53.7125206 317.773137,53.9823679 L326.037787,55.4213484 C327.342634,55.6485389 328.584596,54.7749256 328.811787,53.4700785 C328.835439,53.3342338 328.847331,53.1966022 328.847331,53.0587138 C328.847331,51.3878706 329.996957,49.9366297 331.623456,49.5542464 L357.825572,43.3942377 C358.781533,43.1694952 359.787396,43.3241261 360.631712,43.8256246 Z M288.955121,182.532817 L290.730631,185.014236 C291.356989,185.889621 291.582085,186.989837 291.34986,188.040882 L289.447375,196.651483 C289.144477,198.02239 288.109362,199.114006 286.756471,199.489266 L285.643958,199.797851 C284.253448,200.183546 282.81355,199.368982 282.427855,197.978472 C282.364772,197.751046 282.332795,197.516122 282.332795,197.28011 L282.332795,189.243209 C282.332795,188.027775 282.915043,186.885899 283.898781,186.172078 L287.735232,183.388264 L287.735232,183.388264 C288.279438,182.999494 288.718651,182.690248 288.955121,182.532817 Z M395.49799,167.602325 L395.49799,168.03067 C395.49799,168.694516 395.691324,169.343993 396.054375,169.899768 C396.294963,170.26807 396.788567,170.371603 397.156869,170.131015 C397.210791,170.095792 397.260242,170.054158 397.304138,170.007027 L398.19713,169.048222 C399.151266,168.023769 400.64095,167.698933 401.934967,168.233162 L406.998272,170.323523 C407.674913,170.602871 408.256305,171.071982 408.672352,171.674297 L411.706414,176.066743 C412.254281,176.859896 413.083488,177.414796 414.025641,177.618755 L414.963841,177.821858 C415.551373,177.949047 415.97064,178.468789 415.97064,179.069931 C415.97064,179.53418 415.594291,179.910529 415.130041,179.910529 C415.073412,179.910529 415.016928,179.904807 414.96145,179.89345 L410.788364,179.039137 C410.20095,178.918882 409.779174,178.402013 409.779174,177.802416 L409.779174,177.730101 C409.779174,177.14684 409.438138,176.617451 408.907056,176.376318 C408.370002,176.132473 407.742386,176.203559 407.273475,176.561343 L406.685367,177.010075 C405.827429,177.664691 404.729379,177.918673 403.67113,177.707278 L401.636671,177.300875 C400.46959,177.06774 399.479507,176.300537 398.962394,175.228612 L398.519229,174.309974 C398.014317,173.26334 397.057652,172.505775 395.923154,172.254191 L394.528086,171.944823 C393.869985,171.798883 393.371275,171.260286 393.276302,170.592922 C393.180522,169.919884 392.693034,169.368595 392.036777,169.19117 L390.460903,168.765118 C389.829124,168.594311 389.455432,167.943686 389.62624,167.311908 C389.626832,167.309717 389.62743,167.307529 389.628035,167.305342 C389.815724,166.626618 390.433331,166.15662 391.137528,166.15662 L394.052286,166.15662 C394.850726,166.15662 395.49799,166.803885 395.49799,167.602325 Z M362.452872,173.080745 L371.017431,175.045299 C371.785552,175.221492 372.330052,175.905031 372.330052,176.6931 C372.330052,177.338321 371.806997,177.861376 371.161776,177.861376 C371.106587,177.861376 371.051468,177.857465 370.996832,177.849673 L360.895795,176.409111 C360.111799,176.297302 359.566884,175.571108 359.678694,174.787112 C359.697985,174.651842 359.736512,174.520025 359.793105,174.395658 C360.254752,173.381161 361.36649,172.831549 362.452872,173.080745 Z M349.116362,159.718532 L358.549832,167.489302 C359.711048,168.445847 359.972339,170.120196 359.157787,171.38507 C358.536996,172.349064 357.252273,172.627285 356.288279,172.006493 C356.149973,171.917427 356.022743,171.812238 355.909266,171.69314 L346.444904,161.759933 C345.908225,161.196668 345.929777,160.304987 346.493042,159.768308 C346.533463,159.729795 346.576138,159.693719 346.62084,159.660271 C347.366686,159.102205 348.397372,159.126267 349.116362,159.718532 Z M383.912096,161.799515 C383.912096,162.217739 383.625569,162.581511 383.218982,162.679484 L381.403292,163.117002 C380.147364,163.419636 379.215414,164.476353 379.072126,165.760258 L378.970289,166.672747 C378.943724,166.910773 379.115148,167.125267 379.353175,167.151831 C379.483941,167.166425 379.614261,167.12086 379.707444,167.027965 L379.907953,166.828075 C380.339282,166.398078 380.923491,166.15662 381.53254,166.15662 C381.84946,166.15662 382.106375,166.413535 382.106375,166.730455 C382.106375,166.823684 382.083659,166.91551 382.040194,166.997987 L381.690407,167.661722 C381.190094,168.611088 381.15743,169.738582 381.601943,170.71532 L381.922387,171.419439 C382.211769,172.055303 381.93089,172.805364 381.295025,173.094746 C381.268698,173.106727 381.241968,173.117802 381.214881,173.127951 C380.500541,173.395603 379.700926,173.064497 379.384914,172.370194 L379.084753,171.710717 C378.97855,171.477382 378.703301,171.374321 378.469966,171.480524 C378.318264,171.549571 378.215226,171.694649 378.200007,171.860629 L378.141646,172.497113 C378.084189,173.123745 377.558631,173.603317 376.929371,173.603317 C376.315869,173.603317 375.818527,173.105975 375.818527,172.492473 L375.818527,171.22757 C375.818527,170.911433 375.858035,170.596535 375.936132,170.290196 L377.425595,164.447762 C377.798806,162.983839 379.00488,161.880781 380.496221,161.639412 L383.208301,161.200469 C383.539145,161.146923 383.850755,161.371717 383.904301,161.702561 C383.909489,161.734618 383.912096,161.76704 383.912096,161.799515 Z M374.707682,161.086177 L375.058564,161.836886 C375.539655,162.866173 375.5342,164.056878 375.043698,165.081714 L373.358174,168.603386 C372.729905,169.916067 371.403855,170.751505 369.948571,170.751505 L369.350585,170.751505 C368.220872,170.751505 367.149909,170.248126 366.429035,169.378304 L365.15237,167.837853 C364.619412,167.194775 364.708683,166.241409 365.351761,165.708451 C365.491606,165.592553 365.651184,165.502795 365.822853,165.443475 L367.010602,165.033053 C367.586188,164.834162 368.105449,164.499655 368.524514,164.057793 L371.791546,160.613037 C372.470845,159.896786 373.602162,159.866829 374.318414,160.546128 C374.480845,160.700179 374.612891,160.883372 374.707682,161.086177 Z M385.049893,154.378768 C385.765707,154.910383 386.18769,155.749408 386.18769,156.641037 L386.18769,157.934246 C386.18769,159.120846 385.22576,160.082776 384.03916,160.082776 L383.052613,160.082776 C382.410867,160.082776 381.890629,159.562538 381.890629,158.920792 C381.890629,158.197873 381.518442,157.52588 380.905638,157.142365 L380.87797,157.12505 C380.499309,156.88807 380.384453,156.388995 380.621432,156.010333 C380.676016,155.923116 380.74674,155.847113 380.829809,155.786403 L382.76785,154.370014 C383.448314,153.872706 384.373263,153.876254 385.049893,154.378768 Z M379.865311,144.403836 L379.865311,145.572899 C379.865311,146.556811 379.27709,147.445407 378.371351,147.82975 C377.699114,148.115008 376.92291,147.8013 376.637652,147.129063 C376.602592,147.04644 376.576035,146.960461 376.558393,146.872458 L376.224822,145.208521 C375.999907,144.086586 376.72182,142.993195 377.841919,142.759307 C378.750167,142.569656 379.64019,143.152193 379.829842,144.060441 C379.853425,144.173384 379.865311,144.288457 379.865311,144.403836 Z M404.071586,114.315076 L403.098572,119.147092 C402.817399,120.543401 401.777946,121.664644 400.406889,122.05057 L392.006982,124.41498 C391.205391,124.640612 390.355432,124.273117 389.970722,123.534566 C389.628837,122.878229 389.883751,122.069011 390.540088,121.727126 C390.565662,121.713805 390.59166,121.701312 390.618041,121.689668 L397.536593,118.635883 C398.402465,118.253695 399.094246,117.561708 399.476177,116.695723 L400.571853,114.211397 C400.960933,113.329199 401.834187,112.759923 402.798375,112.759923 C403.515665,112.759923 404.097144,113.341401 404.097144,114.058692 C404.097144,114.144789 404.088583,114.230673 404.071586,114.315076 Z M288.688276,105.185682 L287.269704,106.140192 C285.931834,107.0404 285.577039,108.854721 286.477247,110.19259 C286.502665,110.230366 286.528964,110.267543 286.556121,110.304089 L287.632204,111.75221 C288.118455,112.406574 288.381024,113.200147 288.381024,114.015397 L288.381024,115.928901 C288.381024,117.67908 289.799825,119.09788 291.550003,119.09788 L292.277111,119.09788 C294.14538,119.09788 295.73565,117.737939 296.025602,115.892307 L296.58044,112.360585 C296.716887,111.492062 296.547504,110.603109 296.101234,109.845618 L294.075845,106.407758 C293.012104,104.602182 290.686063,104.000807 288.880488,105.064548 C288.815222,105.102998 288.751123,105.143394 288.688276,105.185682 Z M264.34077,105.49372 L263.704964,106.47036 C262.725829,107.974374 263.151327,109.987364 264.655341,110.966499 C264.681921,110.983802 264.708752,111.000716 264.735827,111.017234 L266.682148,112.204671 C267.277363,112.567808 267.961127,112.759923 268.658371,112.759923 L277.753602,112.759923 C279.503674,112.759923 280.922388,111.341209 280.922388,109.591136 C280.922388,107.808006 279.539792,106.330297 277.760602,106.211839 L272.207221,105.842098 C271.675506,105.806696 271.15721,105.659695 270.686084,105.410666 L268.703101,104.362494 C267.175232,103.554888 265.283642,104.04541 264.34077,105.49372 Z M406.01789,107.876528 L406.077002,107.901116 C406.536264,108.09215 406.753707,108.61932 406.562673,109.078583 C406.452512,109.343419 406.22279,109.539946 405.944092,109.607778 L402.763192,110.381975 C402.277056,110.500296 401.787048,110.202122 401.668728,109.715987 C401.601825,109.441107 401.667176,109.150753 401.845397,108.931044 C402.848953,107.693875 404.54704,107.264717 406.01789,107.876528 Z M406.147444,93.8455529 L406.860994,103.677936 C406.892416,104.110923 406.566884,104.487401 406.133897,104.518823 C406.114963,104.520197 406.095986,104.520885 406.077002,104.520885 C405.599881,104.520885 405.202989,104.153972 405.165593,103.678319 L404.458939,94.6901335 C404.414098,94.1197818 404.719872,93.5792819 405.231836,93.3239291 C405.545273,93.1675955 405.926098,93.2949532 406.082431,93.6083903 C406.119368,93.6824457 406.141454,93.7630142 406.147444,93.8455529 Z M226.20706,86.9700842 L228.35341,90.3470609 C229.477518,92.1156846 228.955034,94.4607068 227.186411,95.5848146 C227.129613,95.6209145 227.071864,95.6554969 227.013227,95.6885252 L225.007026,96.818542 C224.201785,97.2721031 223.181325,96.987011 222.727764,96.1817708 C222.586565,95.9310897 222.512384,95.6482376 222.512384,95.3605256 C222.512384,94.3677016 221.707541,93.5628587 220.714717,93.5628587 C220.444236,93.5628587 220.177241,93.623895 219.933626,93.7414199 L218.031554,94.6590197 C217.233161,95.0441813 216.2737,94.7091911 215.888539,93.9107981 C215.783607,93.6932867 215.72911,93.4549005 215.72911,93.2134012 L215.72911,92.2927657 C215.72911,91.2487177 216.159296,90.2507987 216.918378,89.5339776 L220.399484,86.2466733 C221.923121,84.8078615 224.324659,84.8766255 225.763471,86.4002621 C225.929113,86.575669 226.077648,86.7664735 226.20706,86.9700842 Z M193.640041,25.2687196 L208.862648,30.3348902 C210.463754,30.8677473 211.32974,32.5976659 210.796883,34.1987716 C210.545541,34.953992 210.009412,35.5813203 209.302578,35.947266 L204.511204,38.4278809 C203.478672,38.9624485 202.748221,39.9408987 202.529211,41.0827912 L198.917086,59.9159521 C198.71014,60.9949402 198.045686,61.9312652 197.095522,62.4828355 L179.024372,72.9731358 C178.433342,73.3162286 177.945941,73.8125714 177.613648,74.40974 L175.741025,77.7750573 C174.747885,79.5598434 172.495931,80.2015994 170.711145,79.2084595 C170.412469,79.0422618 170.138275,78.8354608 169.896392,78.5939615 L164.106277,72.8130299 C163.331824,72.0398049 162.928927,70.9698573 163.001015,69.87786 L163.724857,58.9130852 C163.797581,57.8114682 163.386912,56.7328023 162.599979,55.9584729 L153.764082,47.2640868 C153.196053,46.7051545 152.466465,46.3392494 151.678794,46.2182664 L146.701783,45.4538181 C145.061686,45.2019059 143.936339,43.6681289 144.188251,42.0280313 C144.292019,41.3524424 144.623042,40.7324282 145.126682,40.2703296 L157.189565,29.202413 C157.797833,28.644316 158.571512,28.2998074 159.393262,28.2211369 L192.080224,25.0918396 C192.606808,25.0414268 193.138115,25.101676 193.640041,25.2687196 Z M132.506938,53.8884393 L142.004018,61.4745379 C142.120758,61.5677871 142.242902,61.6540599 142.369815,61.7329055 L148.929626,65.8082476 C150.7097,66.9141345 151.256236,69.2536677 150.150349,71.0337414 C150.013641,71.2537921 149.854757,71.4592642 149.676183,71.6469423 L145.902397,75.6131361 C144.695322,76.8817532 142.776879,77.1595907 141.259494,76.2855418 L135.138276,72.7595772 C133.769624,71.971202 133.299217,70.2225865 134.087593,68.853935 C134.270381,68.536607 134.512414,68.257338 134.80054,68.0313027 L135.948381,67.1308203 C136.98486,66.3177013 137.165929,64.818306 136.35281,63.7818271 C136.278529,63.6871422 136.19719,63.5982145 136.109488,63.5158058 L135.181428,62.6437582 C134.477801,61.9825982 133.548597,61.6145338 132.58308,61.6145338 L125.179322,61.6145338 C124.618242,61.6145338 124.064145,61.4901036 123.556938,61.250205 L117.607097,58.4360527 C116.499131,57.9120074 116.025769,56.5890007 116.549815,55.4810345 C116.596305,55.3827425 116.649956,55.288 116.710334,55.1975727 L117.011763,54.7461296 C117.715728,53.6918184 118.899713,53.0587138 120.167443,53.0587138 L130.138755,53.0587138 C130.999404,53.0587138 131.834485,53.3512962 132.506938,53.8884393 Z M211.639009,69.439332 C212.109606,70.2616229 211.824502,71.3097158 211.002211,71.780313 C210.903606,71.8367443 210.79964,71.8832407 210.691843,71.9191173 L204.701433,73.9128271 C202.986754,74.4835012 201.107537,73.7657253 200.209909,72.1972686 L199.672116,71.2575639 C199.005605,70.0929467 199.4094,68.6085244 200.574018,67.9420139 C200.941462,67.7317253 201.357478,67.6211001 201.780842,67.6211001 L208.503497,67.6211001 C209.799086,67.6211001 210.995478,68.3148683 211.639009,69.439332 Z M228.135154,44.7842851 L241.510486,55.3886069 C243.152625,56.6905389 243.428418,59.0771801 242.126486,60.7193193 C241.85684,61.0594268 241.53084,61.3507504 241.162675,61.5806124 L232.240871,67.1508889 C231.154679,67.8290464 229.799713,67.9136206 228.637622,67.3757964 L217.705394,62.3162806 C216.363534,61.6952579 215.504631,60.3513233 215.504631,58.8727236 L215.504631,52.204698 C215.504631,50.9542006 216.12075,49.7839911 217.151735,49.0763103 L223.630435,44.6292535 C225.003353,43.6868663 226.830273,43.7497405 228.135154,44.7842851 Z M77.2850681,50.6193736 L82.1758038,51.3047037 C82.9632761,51.4150508 83.6961834,51.769999 84.271013,52.3194168 L86.3520065,54.3084149 C87.3810224,55.2919406 88.8739412,55.6168203 90.2186071,55.1498405 L93.9602404,53.8504343 C95.3513191,53.3673361 96.896291,53.7327089 97.9236154,54.7877389 L100.405565,57.3366238 C101.376476,58.3337189 101.35525,59.929103 100.358155,60.9000139 C99.8876504,61.3581624 99.2568797,61.6145338 98.6001649,61.6145338 L87.8129778,61.6145338 C86.8075239,61.6145338 85.8431748,61.2154744 85.1317244,60.5049986 L83.0698685,58.4459669 C82.3584181,57.735491 81.394069,57.3364316 80.388615,57.3364316 L75.3254928,57.3364316 C73.8904148,57.3364316 72.7270542,56.173071 72.7270542,54.737993 C72.7270542,54.4069536 72.7903104,54.0789633 72.9134197,53.7716668 L73.2361817,52.966012 C73.8853585,51.3455842 75.5563303,50.3771286 77.2850681,50.6193736 Z M113.854097,55.1975727 L113.457706,55.7912388 C112.871142,56.6697222 113.042174,57.8492424 113.854097,58.5249428 C114.240012,58.8461094 114.292501,59.4193119 113.971334,59.8052265 C113.842083,59.9605353 113.664774,60.0683577 113.467413,60.1116632 L110.366235,60.7921321 C108.955262,61.1017318 107.490888,60.5833249 106.588981,59.4549361 L104.769239,57.1782325 C103.894738,56.0841318 104.072758,54.4882645 105.166859,53.6137631 C105.616402,53.2544483 106.174787,53.0587138 106.750284,53.0587138 L112.710399,53.0587138 C113.469907,53.0587138 114.08561,53.6744165 114.08561,54.4339243 C114.08561,54.7057606 114.005047,54.9714993 113.854097,55.1975727 Z M144.797561,33.0954541 L137.425225,37.4253939 C136.950601,37.7041509 136.542307,38.0828307 136.228668,38.5351617 L129.360702,48.4401532 C128.600763,49.5361383 127.321234,50.1526957 125.990502,50.064126 L100.009227,48.3348876 C99.7190566,48.3155747 99.4276276,48.329684 99.1406797,48.3769376 L88.8540758,50.0709024 C88.310043,50.160492 87.7530214,50.1304445 87.221783,49.9828516 L81.1848782,48.30563 C79.9373228,47.9590241 79.206959,46.666701 79.5535649,45.4191456 C79.7523942,44.7034897 80.2785876,44.1243867 80.9719791,43.8581075 L90.6891837,40.1264647 C91.5312065,39.8031075 92.4759338,40.223569 92.799291,41.0655919 C92.8710505,41.2524536 92.9078475,41.4509151 92.9078475,41.6510819 C92.9078475,43.0040517 93.9252722,44.1406072 95.2699901,44.289809 L99.1387592,44.7190641 C99.7547382,44.7874094 100.309493,44.3434645 100.377838,43.7274855 C100.406183,43.4720224 100.345971,43.2145714 100.207269,42.9981767 C99.5969395,42.0459737 99.8740826,40.7792908 100.826286,40.1689612 C100.905673,40.1180768 100.98848,40.0727361 101.074115,40.033263 L102.847103,39.2160151 C103.653316,38.844396 104.564308,38.7672155 105.421549,38.9979042 L110.323231,40.3169749 C111.127002,40.5332744 111.953933,40.0570345 112.170232,39.2532633 C112.303552,38.7578459 112.175695,38.2286349 111.830898,37.8487302 C110.699586,36.6022265 110.792967,34.6746261 112.039471,33.5433141 C112.417238,33.2004568 112.875022,32.9579048 113.37086,32.8378907 L131.504139,28.4488622 C131.796417,28.3781184 132.096069,28.3423703 132.396786,28.3423703 L143.504989,28.3423703 C144.914583,28.3423703 146.057284,29.485072 146.057284,30.8946659 C146.057284,31.7997262 145.577975,32.6370996 144.797561,33.0954541 Z M251.866245,32.2221716 L256.2705,33.8539638 C257.608104,34.3495508 258.290693,35.8356455 257.795106,37.1732492 C257.566383,37.7905812 257.110557,38.2972726 256.52077,38.5897878 L249.531613,42.0561853 C248.301686,42.6661898 246.838181,42.5642507 245.704699,41.7896253 L242.336816,39.488003 C240.952961,38.542272 240.597791,36.6537694 241.543522,35.2699144 C241.931465,34.7022515 242.500665,34.2831397 243.157907,34.0812147 L249.433586,32.153132 C250.230059,31.9084308 251.084933,31.9326924 251.866245,32.2221716 Z M348.093096,33.2826801 L356.235662,37.7558736 C356.881471,38.1106548 357.117396,38.9217935 356.762615,39.5676027 C356.595577,39.8716619 356.316672,40.0987005 355.985046,40.2005715 L353.764,40.8828462 C353.240971,41.0435135 352.689382,41.0891668 352.147055,41.0166757 L343.946727,39.9205637 C342.471184,39.7233326 341.434908,38.3672819 341.632139,36.8917396 C341.699356,36.3888745 341.907126,35.9151882 342.231561,35.5251456 L343.34891,34.181845 C344.510981,32.784779 346.500409,32.4077229 348.093096,33.2826801 Z"/></g></svg>