<svg xmlns="http://www.w3.org/2000/svg" width="24" height="32" viewBox="0 0 24 32"><g fill="none" fill-rule="evenodd"><ellipse cx="11.5" cy="30" fill="#000" fill-opacity=".05" rx="7.5" ry="1"/><rect width="19" height="19" x="2" y="1" fill="#FFF" rx="5"/><path fill="#B2B2B2" d="M10,20 L13,20 L13,29.5 C13,29.7761424 12.7761424,30 12.5,30 L10.5,30 C10.2238576,30 10,29.7761424 10,29.5 L10,20 L10,20 Z"/><path fill="#FACA53" d="M7.03221471,3.01621505 L15.9521701,3.06391535 C17.5964846,3.07270847 18.9272915,4.4035154 18.9360847,6.0478299 L18.9837849,14.9677853 C18.992645,16.6246159 17.656701,17.9749249 15.9998704,17.9837849 L15.9677853,17.9837849 L15.9677853,17.9837849 L7.0478299,17.9360847 C5.4035154,17.9272915 4.07270847,16.5964846 4.06391535,14.9521701 L4.01621505,6.03221471 C4.007355,4.37538415 5.34329905,3.02507511 7.00012961,3.01621505 L7.03221471,3.01621505 L7.03221471,3.01621505 Z M15,7 L8,7 L8,9 L10.5,9 L10.5,14 L12.5,14 L12.5,9 L15,9 L15,7 Z"/></g></svg>