<svg xmlns="http://www.w3.org/2000/svg" width="24" height="24" viewBox="0 0 24 24"><path fill="#FFF" fill-rule="evenodd" d="M15,10.7003543 L15,14.1641975 C15,14.6316077 14.607704,15.0238983 14.1402939,14.9988585 C11.7281235,14.8569661 9.46619216,14.1391577 7.48804555,12.9956721 C5.20942097,11.6769077 3.32308706,9.79057375 2.00432265,7.51194917 C0.852490446,5.53380256 0.14302858,3.27187119 0.00113620686,0.85970085 C-0.0239036237,0.392290679 0.368387055,0 0.835797226,0 L4.29964046,0 C4.70027774,0 5.04248876,0.283784747 5.11760825,0.667728815 L5.73525741,3.73928137 C5.79368368,4.0147195 5.70187097,4.29850425 5.50989893,4.49047628 L3.99329519,6.00108555 C5.5,8.5 6.5,9.5 8.96718671,11.0407741 L10.5095184,9.4984424 C10.7098371,9.29812375 10.9936218,9.21465765 11.2607134,9.27308392 L14.3239193,9.88238647 C14.71621,9.95750596 15,10.299717 15,10.7003543 Z" transform="translate(4.5 4.5)"/></svg>