<svg xmlns="http://www.w3.org/2000/svg" width="153" height="99" viewBox="0 0 153 99"><g fill="none" fill-rule="evenodd"><path fill="#F1F3F5" d="M98,0 C104.627417,-5.32740867e-15 110,5.372583 110,12 L110,23 L141,23 C147.627417,23 153,28.372583 153,35 C153,41.627417 147.627417,47 141,47 L121.317205,47.0000801 C121.759393,48.2511731 122,49.5974882 122,51 C122,57.627417 116.627417,63 110,63 L12,63 C5.372583,63 8.11624501e-16,57.627417 0,51 C-8.11624501e-16,44.372583 5.372583,39 12,39 L27.6831465,39.0009157 C27.2407343,37.7495413 27,36.4028839 27,35 C27,28.372583 32.372583,23 39,23 L44,23 L44,12 C44,5.372583 49.372583,2.99379359e-15 56,0 L98,0 Z"/><g transform="translate(54.934 10.352)"><rect width="35" height="7" x="4" y="81" fill="#000" fill-opacity=".05" rx="3.5"/><path fill="#B2B2B2" d="M17,42 L25,42 L25,83.5833333 C25,84.3657367 24.3657367,85 23.5833333,85 L18.4166667,85 C17.6342633,85 17,84.3657367 17,83.5833333 L17,42 L17,42 Z"/><path fill="#FFC208" d="M9.07905815,-1.00819071e-05 L32.913139,0.0326125199 C37.9108261,0.039453042 41.9605468,4.08917374 41.9673873,9.08686082 L42.0000099,32.920942 C42.0068637,37.9283191 37.9531386,41.9931563 32.9457616,42.0000101 C32.9374884,42.0000214 32.9292151,42.0000214 32.9209418,42.0000101 L9.086861,41.9673875 C4.08917393,41.960547 0.0394532273,37.9108263 0.0326127054,32.9131392 L-9.89637736e-06,9.07905797 C-0.00686368132,4.07168093 4.04686136,0.00684370304 9.0542384,-1.00819074e-05 C9.06251165,-2.14058105e-05 9.07078491,-2.14058104e-05 9.07905815,-1.00819071e-05 Z"/><polygon fill="#FFF" fill-rule="nonzero" points="30.648 11.352 30.648 17.027 23.838 17.027 23.838 31.783 18.162 31.783 18.162 17.027 11.352 17.027 11.352 11.352"/></g></g></svg>