<svg xmlns="http://www.w3.org/2000/svg" xmlns:xlink="http://www.w3.org/1999/xlink" width="24" height="24"><g><defs><path d="M 9 3 C 9 1.343 10.343 0 12 0 L 12 0 C 13.657 0 15 1.343 15 3 L 15 9 C 15 10.657 13.657 12 12 12 L 12 12 C 10.343 12 9 10.657 9 9 Z" id="a1000z"></path><clipPath id="a1001z"><use xlink:href="#a1000z"></use></clipPath></defs><use xlink:href="#a1000z" fill="#005AE0" clip-path="url(#a1001z)" stroke-width="4" stroke="hsl(0, 0%, 100%)"></use></g><g><defs><path d="M 9 15 C 9 13.343 10.343 12 12 12 L 12 12 C 13.657 12 15 13.343 15 15 L 15 21 C 15 22.657 13.657 24 12 24 L 12 24 C 10.343 24 9 22.657 9 21 Z" id="a1002z"></path><clipPath id="a1003z"><use xlink:href="#a1002z"></use></clipPath></defs><use xlink:href="#a1002z" fill="#005AE0" clip-path="url(#a1003z)" stroke-width="4" stroke="hsl(0, 0%, 100%)"></use></g><g><defs><path d="M 0 12 C 0 10.343 1.343 9 3 9 L 9 9 C 10.657 9 12 10.343 12 12 L 12 12 C 12 13.657 10.657 15 9 15 L 3 15 C 1.343 15 0 13.657 0 12 Z" id="a1004z"></path><clipPath id="a1005z"><use xlink:href="#a1004z"></use></clipPath></defs><use xlink:href="#a1004z" fill="#005AE0" clip-path="url(#a1005z)" stroke-width="4" stroke="hsl(0, 0%, 100%)"></use></g><g><defs><path d="M 12 12 C 12 10.343 13.343 9 15 9 L 21 9 C 22.657 9 24 10.343 24 12 L 24 12 C 24 13.657 22.657 15 21 15 L 15 15 C 13.343 15 12 13.657 12 12 Z" id="a1006z"></path><clipPath id="a1007z"><use xlink:href="#a1006z"></use></clipPath></defs><use xlink:href="#a1006z" fill="#005AE0" clip-path="url(#a1007z)" stroke-width="4" stroke="hsl(0, 0%, 100%)"></use></g></svg>